<mxfile host="app.diagrams.net" agent="Mozilla/5.0 (Windows NT 10.0; Win64; x64) AppleWebKit/537.36 (KHTML, like Gecko) Chrome/140.0.0.0 Safari/537.36" version="28.2.5">
  <diagram name="Página-1" id="yF5qsV2uXNmkq1qd5kPr">
    <mxGraphModel dx="1426" dy="777" grid="1" gridSize="10" guides="1" tooltips="1" connect="1" arrows="1" fold="1" page="1" pageScale="1" pageWidth="827" pageHeight="1169" math="0" shadow="0">
      <root>
        <mxCell id="0" />
        <mxCell id="1" parent="0" />
        <mxCell id="czixxtcJF40_clrIZ9-l-1" value="Habilitar Urna" style="text;html=1;align=center;verticalAlign=middle;resizable=0;points=[];autosize=1;strokeColor=none;fillColor=none;fontSize=18;" vertex="1" parent="1">
          <mxGeometry x="330" y="33" width="130" height="40" as="geometry" />
        </mxCell>
        <mxCell id="czixxtcJF40_clrIZ9-l-3" style="edgeStyle=orthogonalEdgeStyle;rounded=0;orthogonalLoop=1;jettySize=auto;html=1;" edge="1" parent="1" source="czixxtcJF40_clrIZ9-l-2" target="czixxtcJF40_clrIZ9-l-4">
          <mxGeometry relative="1" as="geometry">
            <mxPoint x="240" y="165" as="targetPoint" />
          </mxGeometry>
        </mxCell>
        <mxCell id="czixxtcJF40_clrIZ9-l-2" value="" style="ellipse;fillColor=strokeColor;html=1;" vertex="1" parent="1">
          <mxGeometry x="100" y="145" width="30" height="30" as="geometry" />
        </mxCell>
        <mxCell id="czixxtcJF40_clrIZ9-l-5" style="edgeStyle=orthogonalEdgeStyle;rounded=0;orthogonalLoop=1;jettySize=auto;html=1;" edge="1" parent="1" source="czixxtcJF40_clrIZ9-l-4" target="czixxtcJF40_clrIZ9-l-6">
          <mxGeometry relative="1" as="geometry">
            <mxPoint x="440" y="165" as="targetPoint" />
          </mxGeometry>
        </mxCell>
        <mxCell id="czixxtcJF40_clrIZ9-l-4" value="mesário digita login de acesso no sistema" style="rounded=1;whiteSpace=wrap;html=1;" vertex="1" parent="1">
          <mxGeometry x="190" y="130" width="120" height="60" as="geometry" />
        </mxCell>
        <mxCell id="czixxtcJF40_clrIZ9-l-7" style="edgeStyle=orthogonalEdgeStyle;rounded=0;orthogonalLoop=1;jettySize=auto;html=1;entryX=0;entryY=0.5;entryDx=0;entryDy=0;" edge="1" parent="1" source="czixxtcJF40_clrIZ9-l-6" target="czixxtcJF40_clrIZ9-l-11">
          <mxGeometry relative="1" as="geometry">
            <mxPoint x="560" y="165" as="targetPoint" />
          </mxGeometry>
        </mxCell>
        <mxCell id="czixxtcJF40_clrIZ9-l-8" value="acesso negado" style="edgeLabel;html=1;align=center;verticalAlign=middle;resizable=0;points=[];" vertex="1" connectable="0" parent="czixxtcJF40_clrIZ9-l-7">
          <mxGeometry x="-0.2724" y="-1" relative="1" as="geometry">
            <mxPoint as="offset" />
          </mxGeometry>
        </mxCell>
        <mxCell id="czixxtcJF40_clrIZ9-l-16" style="edgeStyle=orthogonalEdgeStyle;rounded=0;orthogonalLoop=1;jettySize=auto;html=1;" edge="1" parent="1" source="czixxtcJF40_clrIZ9-l-6">
          <mxGeometry relative="1" as="geometry">
            <mxPoint x="250" y="420" as="targetPoint" />
          </mxGeometry>
        </mxCell>
        <mxCell id="czixxtcJF40_clrIZ9-l-17" value="acesso autorizado" style="edgeLabel;html=1;align=center;verticalAlign=middle;resizable=0;points=[];" vertex="1" connectable="0" parent="czixxtcJF40_clrIZ9-l-16">
          <mxGeometry x="-0.0894" y="1" relative="1" as="geometry">
            <mxPoint y="1" as="offset" />
          </mxGeometry>
        </mxCell>
        <mxCell id="czixxtcJF40_clrIZ9-l-6" value="" style="rhombus;whiteSpace=wrap;html=1;" vertex="1" parent="1">
          <mxGeometry x="225" y="280" width="50" height="22.5" as="geometry" />
        </mxCell>
        <mxCell id="czixxtcJF40_clrIZ9-l-13" style="edgeStyle=orthogonalEdgeStyle;rounded=0;orthogonalLoop=1;jettySize=auto;html=1;" edge="1" parent="1" source="czixxtcJF40_clrIZ9-l-11" target="czixxtcJF40_clrIZ9-l-14">
          <mxGeometry relative="1" as="geometry">
            <mxPoint x="480" y="190" as="targetPoint" />
          </mxGeometry>
        </mxCell>
        <mxCell id="czixxtcJF40_clrIZ9-l-11" value="urna emite aviso de erro" style="rounded=1;whiteSpace=wrap;html=1;" vertex="1" parent="1">
          <mxGeometry x="440" y="261.25" width="120" height="60" as="geometry" />
        </mxCell>
        <mxCell id="czixxtcJF40_clrIZ9-l-14" value="pede para digitar o login novamente" style="rounded=1;whiteSpace=wrap;html=1;" vertex="1" parent="1">
          <mxGeometry x="440" y="140" width="120" height="55" as="geometry" />
        </mxCell>
        <mxCell id="czixxtcJF40_clrIZ9-l-15" style="edgeStyle=orthogonalEdgeStyle;rounded=0;orthogonalLoop=1;jettySize=auto;html=1;entryX=0.975;entryY=0.617;entryDx=0;entryDy=0;entryPerimeter=0;" edge="1" parent="1" source="czixxtcJF40_clrIZ9-l-14" target="czixxtcJF40_clrIZ9-l-4">
          <mxGeometry relative="1" as="geometry" />
        </mxCell>
        <mxCell id="czixxtcJF40_clrIZ9-l-19" style="edgeStyle=orthogonalEdgeStyle;rounded=0;orthogonalLoop=1;jettySize=auto;html=1;" edge="1" parent="1" source="czixxtcJF40_clrIZ9-l-18" target="czixxtcJF40_clrIZ9-l-20">
          <mxGeometry relative="1" as="geometry">
            <mxPoint x="410" y="450" as="targetPoint" />
          </mxGeometry>
        </mxCell>
        <mxCell id="czixxtcJF40_clrIZ9-l-18" value="UEv recebe as informações da Ueg" style="rounded=1;whiteSpace=wrap;html=1;" vertex="1" parent="1">
          <mxGeometry x="190" y="420" width="120" height="60" as="geometry" />
        </mxCell>
        <mxCell id="czixxtcJF40_clrIZ9-l-21" style="edgeStyle=orthogonalEdgeStyle;rounded=0;orthogonalLoop=1;jettySize=auto;html=1;" edge="1" parent="1" source="czixxtcJF40_clrIZ9-l-20" target="czixxtcJF40_clrIZ9-l-22">
          <mxGeometry relative="1" as="geometry">
            <mxPoint x="550" y="450" as="targetPoint" />
          </mxGeometry>
        </mxCell>
        <mxCell id="czixxtcJF40_clrIZ9-l-20" value="mesário habilita a UEv na urna&amp;nbsp;" style="rounded=1;whiteSpace=wrap;html=1;" vertex="1" parent="1">
          <mxGeometry x="370" y="420" width="120" height="60" as="geometry" />
        </mxCell>
        <mxCell id="czixxtcJF40_clrIZ9-l-22" value="mesário habilita a urna para votação" style="rounded=1;whiteSpace=wrap;html=1;" vertex="1" parent="1">
          <mxGeometry x="540" y="420" width="120" height="60" as="geometry" />
        </mxCell>
        <mxCell id="czixxtcJF40_clrIZ9-l-23" value="" style="shape=line;html=1;strokeWidth=6;strokeColor=#000000;" vertex="1" parent="1">
          <mxGeometry x="580" y="510" width="50" height="10" as="geometry" />
        </mxCell>
        <mxCell id="czixxtcJF40_clrIZ9-l-24" value="" style="edgeStyle=orthogonalEdgeStyle;html=1;verticalAlign=bottom;endArrow=open;endSize=8;strokeColor=#000000;rounded=0;fontColor=default;entryX=0.5;entryY=0;entryDx=0;entryDy=0;" edge="1" source="czixxtcJF40_clrIZ9-l-23" parent="1" target="czixxtcJF40_clrIZ9-l-30">
          <mxGeometry relative="1" as="geometry">
            <mxPoint x="605" y="550" as="targetPoint" />
          </mxGeometry>
        </mxCell>
        <mxCell id="czixxtcJF40_clrIZ9-l-26" style="edgeStyle=orthogonalEdgeStyle;rounded=0;orthogonalLoop=1;jettySize=auto;html=1;entryX=0.52;entryY=0.3;entryDx=0;entryDy=0;entryPerimeter=0;" edge="1" parent="1" source="czixxtcJF40_clrIZ9-l-22" target="czixxtcJF40_clrIZ9-l-23">
          <mxGeometry relative="1" as="geometry">
            <Array as="points">
              <mxPoint x="606" y="500" />
              <mxPoint x="606" y="500" />
            </Array>
          </mxGeometry>
        </mxCell>
        <mxCell id="czixxtcJF40_clrIZ9-l-30" value="" style="ellipse;html=1;shape=endState;fillColor=strokeColor;" vertex="1" parent="1">
          <mxGeometry x="590" y="555" width="30" height="30" as="geometry" />
        </mxCell>
      </root>
    </mxGraphModel>
  </diagram>
</mxfile>
